HIERARCHY
ROOT Hips
{
	OFFSET 0.000000 0.000000 0.000000
	CHANNELS 6 Xposition Yposition Zposition Zrotation Yrotation Xrotation 
	JOINT LeftUpLeg_virtual
	{
		OFFSET 0.000000 0.000000 0.000000
		CHANNELS 3 Zrotation Yrotation Xrotation
		JOINT LeftUpLeg
		{
			OFFSET 10.205400 -3.823500 0.155100
			CHANNELS 3 Zrotation Yrotation Xrotation
			JOINT LeftLeg
			{
				OFFSET 0.708757 -12.982077 0.567790
				CHANNELS 3 Zrotation Yrotation Xrotation
				JOINT LeftFoot
				{
					OFFSET -0.708756 -10.717838 -2.184338
					CHANNELS 3 Zrotation Yrotation Xrotation
					JOINT LeftToeBase
					{
						OFFSET 0.108149 -7.191104 7.560241
						CHANNELS 3 Zrotation Yrotation Xrotation
						End Site
						{
							OFFSET 0.000000 0.000000 0.000000
						}
					}
				}
			}
		}
	}
	JOINT RightUpLeg_virtual
	{
		OFFSET 0.000000 0.000000 0.000000
		CHANNELS 3 Zrotation Yrotation Xrotation
		JOINT RightUpLeg
		{
			OFFSET -10.205400 -3.823500 0.005500
			CHANNELS 3 Zrotation Yrotation Xrotation
			JOINT RightLeg
			{
				OFFSET -0.708756 -12.982134 0.610632
				CHANNELS 3 Zrotation Yrotation Xrotation
				JOINT RightFoot
				{
					OFFSET 0.708754 -10.717769 -1.945823
					CHANNELS 3 Zrotation Yrotation Xrotation
					JOINT RightToeBase
					{
						OFFSET -0.108140 -7.191069 7.372968
						CHANNELS 3 Zrotation Yrotation Xrotation
						End Site
						{
							OFFSET 0.000000 0.000000 0.000000
						}
					}
				}
			}
		}
	}
	JOINT Spine_virtual
	{
		OFFSET 0.000000 0.000000 0.000000
		CHANNELS 3 Zrotation Yrotation Xrotation
		JOINT Spine
		{
			OFFSET 0.000000 6.876099 0.125700
			CHANNELS 3 Zrotation Yrotation Xrotation
			JOINT Spine1
			{
				OFFSET 0.000000 8.022060 0.146608
				CHANNELS 3 Zrotation Yrotation Xrotation
				JOINT Spine2
				{
					OFFSET 0.000000 9.168068 0.167552
					CHANNELS 3 Zrotation Yrotation Xrotation
					JOINT Neck_virtual
					{
						OFFSET 0.000000 0.000000 0.000000
						CHANNELS 3 Zrotation Yrotation Xrotation
						JOINT Neck
						{
							OFFSET 0.000000 10.314075 0.188496
							CHANNELS 3 Zrotation Yrotation Xrotation
							JOINT Head
							{
								OFFSET 0.000000 7.643700 -2.377400
								CHANNELS 3 Zrotation Yrotation Xrotation
								End Site
								{
									OFFSET 0.000000 0.000000 0.000000
								}
							}
						}
					}
					JOINT LeftShoulder_virtual
					{
						OFFSET 0.000000 0.000000 0.000000
						CHANNELS 3 Zrotation Yrotation Xrotation
						JOINT LeftShoulder
						{
							OFFSET 4.392200 8.824978 0.174984
							CHANNELS 3 Zrotation Yrotation Xrotation
							JOINT LeftArm
							{
								OFFSET 8.771219 -2.981674 -0.026999
								CHANNELS 3 Zrotation Yrotation Xrotation
								JOINT LeftForeArm
								{
									OFFSET 8.512804 0.000000 -0.000000
									CHANNELS 3 Zrotation Yrotation Xrotation
									JOINT LeftHand
									{
										OFFSET 18.484802 0.000000 -0.000000
										CHANNELS 3 Zrotation Yrotation Xrotation
										End Site
										{
											OFFSET 0.000000 0.000000 0.000000
										}
									}
								}
							}
						}
					}
					JOINT RightShoulder_virtual
					{
						OFFSET 0.000000 0.000000 0.000000
						CHANNELS 3 Zrotation Yrotation Xrotation
						JOINT RightShoulder
						{
							OFFSET -4.392200 8.824993 0.141379
							CHANNELS 3 Zrotation Yrotation Xrotation
							JOINT RightArm
							{
								OFFSET -8.771282 -2.981682 -0.094208
								CHANNELS 3 Zrotation Yrotation Xrotation
								JOINT RightForeArm
								{
									OFFSET -8.494598 0.000000 0.000000
									CHANNELS 3 Zrotation Yrotation Xrotation
									JOINT RightHand
									{
										OFFSET -18.483803 0.000000 0.000001
										CHANNELS 3 Zrotation Yrotation Xrotation
										End Site
										{
											OFFSET 0.000000 0.000000 0.000000
										}
									}
								}
							}
						}
					}
				}
			}
		}
	}
}
MOTION
Frames: 11
Frame Time: 0.033333
-4.087430 36.084568 6.823096 -179.970061 -2.497162 179.909573 -3.434901 -2.556864 12.114893 -11.991263 -1.150184 -17.660038 10.464319 5.912636 18.326832 5.844764 -3.237153 6.381142 0.000000 0.000000 0.000000 0.711074 -1.299680 11.198946 3.058718 1.102637 -15.958035 -6.983934 1.003539 15.458774 6.460706 1.225147 7.432586 0.000000 0.000000 0.000000 0.097607 0.652681 1.011384 -2.115074 2.107911 -7.826875 -0.078570 -3.441505 4.993863 -0.021127 0.026426 0.007415 -0.035510 -2.032754 5.970373 2.565962 -0.011149 24.035186 0.000000 0.000000 0.000000 1.704887 -1.232992 2.320420 -6.602653 1.744381 -5.370474 -1.889872 9.376308 -40.686112 -2.297621 -42.487643 -1.299680 0.000000 0.000000 0.000000 -2.376125 -0.343384 1.755096 19.466406 -3.111139 -13.282176 13.697111 -11.999998 -59.490271 -3.915937 32.319161 1.985198 0.000000 0.000000 0.000000 
-4.116019 36.081512 6.767999 -179.866366 -2.503692 179.924135 -3.436655 -2.618158 12.126508 -11.971061 -1.210657 -17.617203 10.420726 5.772825 18.214593 5.817491 -3.263899 6.071639 0.000000 0.000000 0.000000 0.797855 -1.365664 11.173663 3.044990 0.983018 -15.970159 -7.015981 0.747199 15.376513 6.359108 1.100940 7.580618 0.000000 0.000000 0.000000 0.150596 0.637700 0.955662 -2.066627 2.073195 -7.898278 -0.050136 -3.474555 4.980457 0.006722 0.001193 -0.019454 -0.095162 -1.983781 6.011040 2.554002 -0.024193 24.067835 0.000000 0.000000 0.000000 1.636568 -1.218801 2.360396 -6.642090 1.782795 -5.374953 -1.941385 9.456087 -40.672103 -2.302431 -42.523515 -1.289185 0.000000 0.000000 0.000000 -2.449150 -0.356305 1.766166 19.497610 -3.173443 -13.366008 13.658495 -12.226117 -59.654831 -3.839420 32.431029 2.070129 0.000000 0.000000 0.000000 
-4.153480 36.074379 6.687447 -179.935774 -2.424876 179.919573 -3.527527 -2.593070 12.174548 -11.976966 -1.199658 -17.559638 10.427614 5.854123 18.374780 5.877453 -3.235227 5.846233 0.000000 0.000000 0.000000 0.730119 -1.290056 11.210478 2.990941 0.922152 -15.860293 -6.999421 0.917554 15.513631 6.410138 1.099980 7.382429 0.000000 0.000000 0.000000 0.102958 0.808446 0.910193 -2.078703 2.029581 -7.945267 -0.058281 -3.483736 4.993478 0.000756 -0.007665 -0.003502 -0.048244 -2.040032 6.029290 2.580739 -0.005322 24.178624 0.000000 0.000000 0.000000 1.689336 -1.260586 2.397869 -6.682247 1.792513 -5.466787 -2.061167 9.502248 -40.602749 -2.250195 -42.613338 -1.234568 0.000000 0.000000 0.000000 -2.413006 -0.410539 1.728437 19.497791 -3.316502 -13.319875 13.792357 -12.488253 -59.878909 -3.908726 32.721579 2.035731 0.000000 0.000000 0.000000 
-4.197296 36.063519 6.594531 -179.908754 -2.420019 179.966004 -3.544314 -2.616665 12.208576 -12.044363 -1.091274 -17.532425 10.436258 5.823420 18.530578 5.912757 -3.220408 5.599826 0.000000 0.000000 0.000000 0.738673 -1.228282 11.241636 2.923196 0.883597 -15.740497 -7.013893 0.937770 15.611552 6.493194 1.093265 7.129188 0.000000 0.000000 0.000000 0.111619 0.694923 0.804956 -2.064810 2.009357 -8.066132 -0.057226 -3.464288 4.998758 -0.001763 0.018378 -0.006303 -0.060558 -2.033907 6.088239 2.582529 0.006650 24.320958 0.000000 0.000000 0.000000 1.676698 -1.225607 2.406977 -6.788178 1.913311 -5.456817 -2.114836 9.591782 -40.656448 -2.360047 -42.652298 -1.235783 0.000000 0.000000 0.000000 -2.424935 -0.370893 1.788270 19.509341 -3.412105 -13.415163 13.967184 -12.798723 -60.110726 -3.881395 33.079713 2.111125 0.000000 0.000000 0.000000 
-4.239135 36.051613 6.496194 -179.964884 -2.398217 179.990361 -3.667964 -2.590989 12.279882 -12.124462 -0.899774 -17.490407 10.366076 5.833861 18.689829 5.934431 -3.221304 5.311470 0.000000 0.000000 0.000000 0.638107 -1.105626 11.275549 2.847734 0.890367 -15.595202 -7.083445 0.868576 15.677793 6.608243 1.060855 6.884740 0.000000 0.000000 0.000000 0.049000 0.710275 0.684313 -2.091573 1.929349 -8.191360 -0.073983 -3.497696 5.011481 -0.018716 -0.003919 -0.043391 -0.056202 -2.052292 6.213778 2.594219 0.030981 24.531827 0.000000 0.000000 0.000000 1.690407 -1.222607 2.458455 -6.871479 1.991864 -5.337894 -2.172204 9.674581 -40.687683 -2.300479 -42.701766 -1.307508 0.000000 0.000000 0.000000 -2.397004 -0.353323 1.942934 19.569983 -3.454076 -13.451956 14.008985 -13.075829 -60.311267 -3.845187 33.272857 2.225643 0.000000 0.000000 0.000000 
-4.279984 36.041092 6.400016 -179.958027 -2.486238 179.898864 -3.688905 -2.605256 12.388757 -12.120571 -0.767509 -17.351136 10.357111 5.855420 18.873204 5.978894 -3.185650 5.032141 0.000000 0.000000 0.000000 0.653008 -1.126272 11.375126 2.810735 0.866979 -15.456792 -7.075085 0.962915 15.819599 6.704514 1.011579 6.600085 0.000000 0.000000 0.000000 0.046331 0.748774 0.647331 -2.095788 1.867144 -8.276209 -0.073431 -3.515815 5.063250 -0.013557 -0.003884 -0.000738 -0.039060 -2.086120 6.186015 2.641024 0.079641 24.742422 0.000000 0.000000 0.000000 1.688012 -1.260484 2.447467 -6.951169 2.034480 -5.500950 -2.178483 9.648020 -40.675170 -2.424000 -42.742525 -1.174739 0.000000 0.000000 0.000000 -2.403766 -0.438893 1.894300 19.636864 -3.579996 -13.651643 14.031569 -13.218856 -60.380061 -3.779784 33.409645 2.369268 0.000000 0.000000 0.000000 
-4.317011 36.030132 6.305986 -179.949489 -2.354447 179.985662 -3.727539 -2.474902 12.407065 -12.207128 -0.594870 -17.315769 10.368609 5.837022 18.973915 5.899339 -3.202462 4.807680 0.000000 0.000000 0.000000 0.656980 -0.911639 11.396218 2.758532 0.795562 -15.365084 -7.107003 1.045065 16.018960 6.781243 0.958143 6.345325 0.000000 0.000000 0.000000 0.035772 0.818877 0.493346 -2.128973 1.831892 -8.476399 -0.078042 -3.520815 5.068369 -0.028212 0.004181 -0.024671 -0.031852 -2.102840 6.289339 2.650313 0.122310 24.966974 0.000000 0.000000 0.000000 1.687714 -1.246608 2.516028 -7.055244 2.090931 -5.428187 -2.143460 9.675638 -40.667585 -2.420056 -42.774500 -1.191334 0.000000 0.000000 0.000000 -2.401430 -0.389947 1.963247 19.736093 -3.559897 -13.547502 13.953925 -13.291827 -60.367398 -3.861761 33.355809 2.357985 0.000000 0.000000 0.000000 
-4.347502 36.019672 6.221567 -179.956743 -2.382485 -179.930214 -3.766992 -2.536152 12.393931 -12.234571 -0.451210 -17.256913 10.369225 5.808082 19.100648 5.875483 -3.165544 4.558146 0.000000 0.000000 0.000000 0.665573 -0.848821 11.412442 2.721707 0.761597 -15.322957 -7.149878 1.078704 16.254397 6.850922 0.903328 6.099275 0.000000 0.000000 0.000000 0.013669 0.889723 0.371021 -2.164783 1.811811 -8.662408 -0.053566 -3.510676 5.066616 0.008295 0.031050 0.022671 -0.058633 -2.260708 6.306650 2.660124 0.173326 25.173359 0.000000 0.000000 0.000000 1.663746 -1.335586 2.570566 -7.155710 2.063425 -5.601505 -2.018375 9.653526 -40.648471 -2.544802 -42.798365 -1.054244 0.000000 0.000000 0.000000 -2.417430 -0.475185 1.907514 19.746910 -3.676634 -13.589988 14.000875 -13.427162 -60.474727 -3.785725 33.481259 2.485909 0.000000 0.000000 0.000000 
-4.371489 36.009518 6.143730 -179.879029 -2.346120 -179.891132 -3.709708 -2.511991 12.391374 -12.298999 -0.359918 -17.181744 10.446709 5.758452 19.203886 5.805912 -3.125689 4.387064 0.000000 0.000000 0.000000 0.730346 -0.740248 11.412363 2.721235 0.772753 -15.291708 -7.182838 1.073760 16.395808 6.917027 0.853424 5.848075 0.000000 0.000000 0.000000 0.025654 0.911085 0.254828 -2.183249 1.753264 -8.823905 -0.033457 -3.550995 5.080729 0.012274 0.003480 0.030606 -0.074749 -2.082532 6.325574 2.636578 0.186983 25.316567 0.000000 0.000000 0.000000 1.645655 -1.301895 2.561116 -7.238376 2.165470 -5.477169 -2.026717 9.640070 -40.710885 -2.419899 -42.866998 -1.181422 0.000000 0.000000 0.000000 -2.462573 -0.450392 1.974704 19.834279 -3.616612 -13.702961 13.855985 -13.417659 -60.367343 -3.743501 33.492300 2.595986 0.000000 0.000000 0.000000 
-4.390632 35.999882 6.079978 -179.885613 -2.303103 -179.940459 -3.734064 -2.504326 12.436980 -12.339795 -0.269271 -17.062706 10.474681 5.752663 19.300622 5.784214 -3.064689 4.180142 0.000000 0.000000 0.000000 0.709117 -0.710570 11.462429 2.720828 0.794085 -15.215734 -7.215990 1.108003 16.525182 6.989587 0.816693 5.696547 0.000000 0.000000 0.000000 0.009139 0.941709 0.238107 -2.214585 1.740642 -8.906143 -0.013882 -3.560260 5.098631 0.013175 0.012478 0.025377 -0.037247 -2.105846 6.350250 2.670618 0.272384 25.447803 0.000000 0.000000 0.000000 1.677371 -1.334967 2.634023 -7.274212 2.198547 -5.666874 -2.006078 9.590822 -40.733332 -2.523537 -42.964482 -1.057491 0.000000 0.000000 0.000000 -2.434205 -0.471294 1.937649 19.870931 -3.663402 -13.663746 13.889766 -13.488175 -60.420700 -3.723791 33.606590 2.670197 0.000000 0.000000 0.000000 
-4.403372 35.994659 6.029872 -179.946415 -2.165421 -179.895776 -3.830415 -2.463615 12.400542 -12.347746 -0.223860 -16.998102 10.472993 5.790460 19.341113 5.745093 -3.030702 4.020284 0.000000 0.000000 0.000000 0.648506 -0.640482 11.460819 2.714117 0.807827 -15.181065 -7.199001 1.248330 16.595020 7.051350 0.785784 5.600174 0.000000 0.000000 0.000000 -0.055231 0.936971 0.148434 -2.273088 1.727700 -9.015071 -0.016752 -3.553584 5.092800 0.001642 0.019189 0.020957 -0.000605 -2.144650 6.373412 2.644209 0.290281 25.507917 0.000000 0.000000 0.000000 1.718396 -1.349393 2.623938 -7.375022 2.250089 -5.633332 -1.881332 9.638700 -40.786522 -2.561250 -42.964755 -1.053317 0.000000 0.000000 0.000000 -2.389137 -0.477851 1.995669 19.949396 -3.656101 -13.687544 13.894311 -13.475172 -60.410359 -3.791144 33.626582 2.615342 0.000000 0.000000 0.000000 
